HIERARCHY
ROOT SpineBase
{
  OFFSET 0.000000 0.000000 0.000000
  CHANNELS 6 Xposition Yposition Zposition Zrotation Xrotation Yrotation
  JOINT SpineMid
  {
    OFFSET -0.000000 31.964438 0.000000
    CHANNELS 3 Zrotation Xrotation Yrotation
    JOINT SpineShoulder
    {
      OFFSET 0.065355 23.669165 -0.781107
      CHANNELS 3 Zrotation Xrotation Yrotation
      JOINT Neck
      {
        OFFSET 0.072606 7.795095 -0.575671
        CHANNELS 3 Zrotation Xrotation Yrotation
        JOINT Head
        {
          OFFSET 2.648369 14.328350 -0.958387
          CHANNELS 3 Zrotation Xrotation Yrotation
          End Site
          {
            OFFSET 0 0 0
          }
        }
      }
      JOINT ShoulderLeft
      {
        OFFSET -15.479369 -3.060037 -7.303605
        CHANNELS 3 Zrotation Xrotation Yrotation
        JOINT ElbowLeft
        {
          OFFSET -5.712470 -26.102804 -4.079595
          CHANNELS 3 Zrotation Xrotation Yrotation
          JOINT WristLeft
          {
            OFFSET 1.544268 -23.489150 -5.793854
            CHANNELS 3 Zrotation Xrotation Yrotation
            JOINT HandLeft
            {
              OFFSET 0.957689 -8.108720 0.214845
              CHANNELS 3 Zrotation Xrotation Yrotation
              JOINT HandTipLeft
              {
                OFFSET 1.199407 -7.576033 -1.546036
                CHANNELS 3 Zrotation Xrotation Yrotation
                End Site
                {
                  OFFSET 0 0 0
                }
              }
              JOINT ThumbLeft
              {
                OFFSET 3.337587 -0.052854 1.401439
                CHANNELS 3 Zrotation Xrotation Yrotation
                End Site
                {
                  OFFSET 0 0 0
                }
              }
            }
          }
        }
      }
      JOINT ShoulderRight
      {
        OFFSET 17.169490 -4.875047 6.570151
        CHANNELS 3 Zrotation Xrotation Yrotation
        JOINT ElbowRight
        {
          OFFSET 3.256038 -29.672135 3.993983
          CHANNELS 3 Zrotation Xrotation Yrotation
          JOINT WristRight
          {
            OFFSET 2.375233 -23.903710 -1.248714
            CHANNELS 3 Zrotation Xrotation Yrotation
            JOINT HandRight
            {
              OFFSET -0.614395 -0.740975 0.304668
              CHANNELS 3 Zrotation Xrotation Yrotation
              JOINT HandTipRight
              {
                OFFSET 0.493766 -7.237118 0.333394
                CHANNELS 3 Zrotation Xrotation Yrotation
                End Site
                {
                  OFFSET 0 0 0
                }
              }
              JOINT ThumbRight
              {
                OFFSET 2.717782 0.194676 -1.678789
                CHANNELS 3 Zrotation Xrotation Yrotation
                End Site
                {
                  OFFSET 0 0 0
                }
              }
            }
          }
        }
      }
    }
  }
  JOINT HipLeft
  {
    OFFSET -6.557660 0.667586 -6.490117
    CHANNELS 3 Zrotation Xrotation Yrotation
    JOINT KneeLeft
    {
      OFFSET -2.866966 -33.435095 5.007344
      CHANNELS 3 Zrotation Xrotation Yrotation
      JOINT AnkleLeft
      {
        OFFSET -0.356120 -35.176536 8.722171
        CHANNELS 3 Zrotation Xrotation Yrotation
        JOINT FootLeft
        {
          OFFSET 3.756847 -4.214703 -10.839931
          CHANNELS 3 Zrotation Xrotation Yrotation
          End Site
          {
            OFFSET 0 0 0
          }
        }
      }
    }
  }
  JOINT HipRight
  {
    OFFSET 8.169046 0.247225 -0.905272
    CHANNELS 3 Zrotation Xrotation Yrotation
    JOINT KneeRight
    {
      OFFSET 2.349483 -35.743279 -3.193232
      CHANNELS 3 Zrotation Xrotation Yrotation
      JOINT AnkleRight
      {
        OFFSET -1.185462 -36.338033 12.659040
        CHANNELS 3 Zrotation Xrotation Yrotation
        JOINT FootRight
        {
          OFFSET 4.031030 -3.698207 -11.733043
          CHANNELS 3 Zrotation Xrotation Yrotation
          End Site
          {
            OFFSET 0 0 0
          }
        }
      }
    }
  }
}
MOTION
Frames: 11
Frame Time: 0.033333
-83.972226 77.312975 371.968017 -0.969689 3.917559 18.388295 -0.395188 0.696336 -18.432521 -0.329687 0.090724 -0.130063 30.022010 -6.586534 5.586552 0.000000 0.000000 0.000000 6.161560 1.089865 -1.511661 -16.081831 11.885747 6.250588 6.703642 -2.185744 -1.047403 1.393509 -2.901443 0.992149 0.000000 0.000000 0.000000 0.000000 0.000000 0.000000 9.207305 16.950985 2.893076 -17.069691 -12.838316 -6.292593 -32.477384 13.581746 -26.522906 25.722299 8.995394 30.033338 0.000000 0.000000 0.000000 0.000000 0.000000 0.000000 6.650637 5.190740 -18.827127 -4.283175 -7.596675 -0.242994 -8.913787 -0.471773 26.737709 0.000000 0.000000 0.000000 -2.783793 -10.544505 -19.117773 3.027725 -0.748088 1.467385 -11.034936 7.187505 28.033250 0.000000 0.000000 0.000000
-83.233639 76.880020 373.291794 -0.862453 4.276283 28.106858 -0.275886 0.679785 -28.150766 -0.275892 0.119732 -0.120965 35.741349 -6.497975 6.729113 0.000000 0.000000 0.000000 6.631472 2.286306 -1.979624 -19.503144 12.304707 7.389065 4.236771 -3.957233 -2.453434 6.903940 9.525758 4.030811 0.000000 0.000000 0.000000 0.000000 0.000000 0.000000 10.698354 18.314826 3.035639 -21.415582 -15.008947 -8.240103 -17.016438 7.424258 -19.828543 10.472840 1.718102 20.100134 0.000000 0.000000 0.000000 0.000000 0.000000 0.000000 7.785441 6.119528 -28.967337 -4.697525 -8.773603 -0.441058 -9.704536 -2.816096 31.427161 0.000000 0.000000 0.000000 -6.869928 -13.393220 -29.652643 3.148630 3.277161 1.461319 -12.360756 5.971505 32.972389 0.000000 0.000000 0.000000
-82.340554 76.408971 374.788070 -0.647516 4.293635 35.754180 -0.162550 0.623485 -35.796103 -0.234280 0.155497 -0.104465 41.233239 -4.660552 6.847505 0.000000 0.000000 0.000000 7.216460 2.808696 -2.283028 -21.722774 11.608818 7.770712 7.473960 -5.303887 -2.265783 6.617741 23.250833 5.538073 0.000000 0.000000 0.000000 0.000000 0.000000 0.000000 12.345475 19.810085 3.053580 -25.417494 -16.094245 -10.018610 -5.036748 1.836670 -13.297488 -3.912332 -4.581885 10.254243 0.000000 0.000000 0.000000 0.000000 0.000000 0.000000 9.005307 7.317991 -37.133321 -5.046878 -9.627948 -0.686329 -10.046885 -5.331945 35.421573 0.000000 0.000000 0.000000 -10.976342 -14.743756 -38.134770 3.135740 7.664719 1.394261 -13.338745 3.819504 37.050990 0.000000 0.000000 0.000000
-81.298618 75.890851 376.715039 -0.450638 4.071523 41.335395 -0.076998 0.548291 -41.373542 -0.194937 0.176997 -0.086879 45.421477 -2.537816 6.299156 0.000000 0.000000 0.000000 7.913715 2.755711 -2.415748 -26.743033 4.548727 7.406663 -0.474928 -1.444535 -5.183943 -7.117889 29.976947 18.003592 0.000000 0.000000 0.000000 0.000000 0.000000 0.000000 13.684590 20.947024 2.957751 -28.854223 -17.131664 -11.570831 6.331111 -2.888428 -5.577830 -17.167779 -9.498575 0.514105 0.000000 0.000000 0.000000 0.000000 0.000000 0.000000 10.299980 8.914943 -43.356873 -5.030296 -10.201504 -0.835764 -10.015922 -7.968949 38.290399 0.000000 0.000000 0.000000 -13.873659 -14.791872 -44.230654 2.770205 11.581484 1.286817 -13.757924 1.000294 39.914593 0.000000 0.000000 0.000000
-80.214049 75.418013 378.842604 -0.218678 3.639397 44.296320 0.005148 0.421193 -44.325769 -0.131367 0.173894 -0.061732 47.339115 -0.747126 5.333765 0.000000 0.000000 0.000000 8.518337 2.534251 -2.486950 -25.698486 3.259406 6.720660 -7.503445 2.215361 -4.609908 -11.426640 44.562746 30.076444 0.000000 0.000000 0.000000 0.000000 0.000000 0.000000 14.604156 22.373169 2.749067 -31.301441 -18.480095 -12.945450 13.911036 -2.988274 -1.705916 -25.698996 -12.389227 -4.137958 0.000000 0.000000 0.000000 0.000000 0.000000 0.000000 11.253861 10.728494 -46.972386 -4.732330 -10.159235 -0.865451 -9.667435 -10.412902 39.729061 0.000000 0.000000 0.000000 -14.928770 -14.028761 -47.246045 2.113380 14.419688 1.153604 -13.568341 -1.939574 41.321569 0.000000 0.000000 0.000000
-79.292296 75.042173 380.826396 -0.115391 3.137841 45.668978 0.010053 0.440314 -45.697510 -0.147227 0.177146 -0.056168 49.464331 0.993087 4.304311 0.000000 0.000000 0.000000 9.728197 2.056257 -2.482842 -19.606647 6.499771 5.587797 -16.905421 7.667157 -1.904462 14.056570 59.480195 23.656833 0.000000 0.000000 0.000000 0.000000 0.000000 0.000000 14.734745 24.209603 2.585296 -31.795787 -20.378809 -13.919923 18.557591 -2.212415 0.462754 -29.528601 -13.945024 -6.456290 0.000000 0.000000 0.000000 0.000000 0.000000 0.000000 12.318476 12.518535 -48.960002 -4.488555 -9.828717 -0.861690 -9.320618 -12.792661 40.563580 0.000000 0.000000 0.000000 -14.575991 -12.990374 -48.396655 1.385962 15.057215 1.056365 -13.175672 -3.559357 42.411160 0.000000 0.000000 0.000000
-78.568166 74.803436 382.560438 -0.269590 2.946360 44.814026 -0.011889 0.435244 -44.842741 -0.143237 0.145594 -0.060401 50.649973 2.040178 3.636266 0.000000 0.000000 0.000000 11.079574 1.163133 -2.340523 -5.147739 14.733773 1.651364 -32.108672 15.451469 1.676437 68.020618 47.512347 1.954538 0.000000 0.000000 0.000000 0.000000 0.000000 0.000000 12.711761 24.869101 2.663261 -29.174438 -21.550276 -13.359559 20.872336 -2.433365 2.223387 -31.040024 -13.612980 -7.642673 0.000000 0.000000 0.000000 0.000000 0.000000 0.000000 12.574506 13.798678 -48.441846 -4.117949 -10.089556 -0.781628 -9.025648 -13.556070 40.677223 0.000000 0.000000 0.000000 -13.089369 -11.964388 -47.144569 1.127684 13.852944 0.876609 -12.731466 -4.115619 42.633598 0.000000 0.000000 0.000000
-78.066699 74.671541 384.103783 -0.672474 2.961642 43.959644 -0.020172 0.407520 -43.989223 -0.135117 0.124383 -0.074813 51.572895 3.013695 3.036940 0.000000 0.000000 0.000000 11.984247 0.213569 -2.072379 18.670541 25.343993 -8.635368 -40.996527 38.087465 6.961021 72.450834 22.522678 27.593928 0.000000 0.000000 0.000000 0.000000 0.000000 0.000000 10.032523 24.801709 2.880161 -25.057951 -21.789326 -11.880204 21.619506 -3.716716 3.878341 -32.348714 -12.499804 -8.503685 0.000000 0.000000 0.000000 0.000000 0.000000 0.000000 12.919664 14.302517 -47.698207 -4.138702 -11.075208 -0.862821 -8.745790 -13.258033 40.954716 0.000000 0.000000 0.000000 -11.838290 -11.340277 -46.019802 0.973337 13.383152 0.675107 -12.347215 -5.026807 42.729439 0.000000 0.000000 0.000000
-77.796889 74.598724 385.178941 -1.144497 3.127475 41.827293 -0.051337 0.405359 -41.858978 -0.142671 0.104419 -0.096142 51.913356 3.676628 2.652898 0.000000 0.000000 0.000000 12.390083 -0.422847 -1.819626 46.251501 31.513865 -24.041404 15.526018 59.414946 -11.219398 32.400188 -30.342400 35.242651 0.000000 0.000000 0.000000 0.000000 0.000000 0.000000 9.244985 25.236644 3.062210 -23.268955 -22.100899 -11.392083 23.394505 -2.911749 3.904830 -37.226863 -11.643124 -8.852373 0.000000 0.000000 0.000000 0.000000 0.000000 0.000000 12.748684 14.455582 -45.466688 -4.285220 -12.505604 -0.991700 -8.600054 -12.001425 41.266297 0.000000 0.000000 0.000000 -10.592680 -11.387202 -43.724223 1.142044 12.391356 0.585618 -12.354076 -4.966889 42.755191 0.000000 0.000000 0.000000
-77.343039 74.539322 386.121229 -1.448243 3.409098 40.872540 -0.062952 0.424303 -40.904103 -0.135716 0.115214 -0.110475 51.244725 3.753053 2.648166 0.000000 0.000000 0.000000 12.173408 0.214688 -1.947203 65.036198 31.378412 -33.957452 44.086656 42.024448 8.560567 -36.239605 -21.421995 -23.985608 0.000000 0.000000 0.000000 0.000000 0.000000 0.000000 9.597539 24.045684 3.100292 -22.399202 -19.050804 -10.249466 25.138125 -2.368460 2.618873 -38.522600 -9.279881 -7.204636 0.000000 0.000000 0.000000 0.000000 0.000000 0.000000 11.668519 14.259135 -44.354874 -3.154996 -14.249380 -0.604204 -9.207839 -7.631167 42.089175 0.000000 0.000000 0.000000 -10.012929 -11.164598 -42.631962 1.043308 12.684981 0.393499 -11.961934 -6.013302 42.656169 0.000000 0.000000 0.000000
-76.999009 74.357797 386.947799 -1.796015 3.705222 39.816073 -0.054949 0.430888 -39.844277 -0.121008 0.126889 -0.124821 50.046169 3.700411 2.684324 0.000000 0.000000 0.000000 12.549021 -0.161471 -1.831551 76.134951 32.240864 -41.802112 41.134750 35.237164 25.167175 -51.413603 -8.122734 -32.614650 0.000000 0.000000 0.000000 0.000000 0.000000 0.000000 11.039103 22.552331 3.096633 -22.430908 -14.708231 -9.168452 28.231208 -1.615460 1.255631 -42.906991 -8.008017 -6.381270 0.000000 0.000000 0.000000 0.000000 0.000000 0.000000 10.253419 13.096225 -42.874829 -1.845476 -16.313001 -0.087987 -10.057415 -4.126492 42.012702 0.000000 0.000000 0.000000 -9.138733 -11.176988 -41.446152 0.703913 12.420479 0.286019 -11.658654 -6.539543 42.671575 0.000000 0.000000 0.000000
